<svg width="252" height="43" viewBox="0 0 252 43" fill="none" xmlns="http://www.w3.org/2000/svg">
<path d="M251.19 18.8167C249.178 18.8167 247.168 18.8142 245.156 18.8142C244.789 18.8142 244.779 18.8268 244.779 19.1864C244.779 20.9944 244.779 22.8024 244.779 24.6078C244.779 27.9807 244.779 31.3535 244.779 34.7264C244.779 34.8479 244.779 34.9695 244.769 35.0885C244.761 35.1873 244.713 35.2354 244.617 35.2455C244.536 35.2556 244.455 35.2556 244.376 35.2556C242.617 35.2556 240.859 35.2556 239.1 35.2556C239.039 35.2556 238.979 35.2556 238.918 35.2531C238.753 35.2404 238.71 35.1999 238.697 35.0277C238.69 34.9062 238.692 34.7846 238.692 34.6656C238.692 29.5861 238.692 24.5091 238.692 19.4295C238.692 19.3383 238.692 19.2472 238.692 19.156C238.687 18.8446 238.662 18.8218 238.338 18.8167C238.256 18.8142 238.175 18.8167 238.094 18.8167C236.295 18.8167 234.496 18.8167 232.697 18.8167C232.585 18.8167 232.474 18.8167 232.365 18.804C232.248 18.7914 232.203 18.7433 232.193 18.6293C232.185 18.5382 232.185 18.447 232.185 18.3559C232.185 17.0442 232.185 15.73 232.185 14.4183C232.185 13.96 232.185 13.96 232.634 13.96C235.515 13.96 238.393 13.96 241.274 13.96C244.427 13.96 247.582 13.96 250.734 13.96C250.886 13.96 251.038 13.965 251.187 13.9676C251.19 15.5856 251.19 17.2012 251.19 18.8167Z" fill="white"/>
<path d="M170.367 24.5344C170.324 24.6686 170.342 24.78 170.342 24.8863C170.339 26.7146 170.342 28.5428 170.342 30.371C170.342 31.8346 170.342 33.3008 170.342 34.7644C170.342 34.8758 170.339 34.9872 170.327 35.0961C170.317 35.1949 170.266 35.2379 170.167 35.248C170.086 35.2556 170.005 35.2556 169.924 35.2556C168.317 35.2556 166.708 35.2556 165.102 35.2556C165.031 35.2556 164.96 35.2556 164.889 35.2506C164.762 35.2379 164.711 35.1923 164.699 35.0606C164.689 34.9391 164.691 34.8176 164.691 34.6985C164.691 29.8114 164.691 24.9218 164.691 20.0347C164.691 18.1761 164.691 16.3174 164.691 14.4588C164.691 14.3474 164.691 14.236 164.704 14.1271C164.714 14.0309 164.765 13.9828 164.861 13.9701C164.942 13.96 165.023 13.96 165.104 13.96C166.521 13.96 167.935 13.96 169.351 13.96C169.392 13.96 169.432 13.9625 169.473 13.96C169.63 13.9499 169.744 14.0132 169.822 14.1499C169.919 14.317 170.023 14.4765 170.124 14.6411C171.297 16.5656 172.468 18.4875 173.639 20.412C174.71 22.1719 175.782 23.9317 176.857 25.689C176.945 25.8359 177.047 25.9726 177.143 26.1144C177.148 26.1195 177.161 26.1195 177.174 26.1221C177.252 26.0866 177.28 26.0056 177.318 25.9372C178.446 24.0355 179.573 22.1313 180.701 20.2271C181.268 19.2725 181.836 18.3179 182.404 17.3607C183.012 16.3352 183.62 15.3096 184.228 14.2866C184.418 13.9676 184.383 13.96 184.801 13.96C186.197 13.96 187.591 13.96 188.987 13.96C189.078 13.96 189.169 13.9625 189.261 13.9701C189.352 13.9777 189.413 14.0309 189.423 14.122C189.435 14.2208 189.441 14.3221 189.441 14.4234C189.443 15.3223 189.443 16.2212 189.446 17.1201C189.453 22.4732 189.458 27.8262 189.468 33.1792C189.468 33.7237 189.494 34.2681 189.499 34.815C189.504 35.2556 189.496 35.2582 189.065 35.2582C187.479 35.2582 185.89 35.2582 184.304 35.2582C184.253 35.2582 184.203 35.2582 184.152 35.2582C183.914 35.248 183.881 35.2151 183.868 34.9695C183.863 34.8682 183.866 34.7669 183.866 34.6656C183.858 31.2928 183.851 27.9199 183.843 24.547C183.843 24.4356 183.843 24.3267 183.843 24.19C183.737 24.2229 183.711 24.3039 183.673 24.3673C183.217 25.1294 182.763 25.8942 182.307 26.6563C181.294 28.3554 180.278 30.0545 179.262 31.7562C179.023 32.1562 178.783 32.5513 178.552 32.9564C178.461 33.1134 178.344 33.1868 178.162 33.1868C177.435 33.1818 176.707 33.1818 175.977 33.1868C175.782 33.1894 175.661 33.1083 175.562 32.9437C175.149 32.2601 174.728 31.5814 174.313 30.9028C173.309 29.267 172.303 27.6338 171.3 25.998C171.051 25.5928 170.806 25.1877 170.555 24.7825C170.509 24.704 170.474 24.6179 170.367 24.5344Z" fill="white"/>
<path d="M230.021 24.6281C230.021 27.9908 230.021 31.3536 230.021 34.7163C230.021 34.8378 230.021 34.9594 230.008 35.0784C229.998 35.1949 229.948 35.2405 229.836 35.2506C229.765 35.2582 229.694 35.2582 229.623 35.2582C228.199 35.2582 226.772 35.2582 225.348 35.2582C224.994 35.2582 224.996 35.2557 224.763 34.9721C223.899 33.9288 223.035 32.8906 222.171 31.8473C221.461 30.9915 220.757 30.133 220.047 29.2797C219.307 28.3858 218.562 27.492 217.822 26.5981C217.197 25.8435 216.573 25.0889 215.945 24.3369C215.892 24.2736 215.854 24.147 215.747 24.19C215.669 24.2204 215.704 24.3344 215.704 24.4129C215.701 24.7674 215.701 25.1193 215.701 25.4738C215.701 28.5327 215.701 31.5941 215.701 34.653C215.701 34.7745 215.704 34.8961 215.694 35.0151C215.679 35.2025 215.633 35.243 215.453 35.2557C215.392 35.2607 215.332 35.2582 215.271 35.2582C213.553 35.2582 211.835 35.2582 210.117 35.2582C210.046 35.2582 209.975 35.2582 209.904 35.2531C209.775 35.2405 209.726 35.1974 209.714 35.0632C209.704 34.9417 209.706 34.8201 209.706 34.7011C209.706 31.075 209.706 27.4515 209.706 23.8254C209.706 20.726 209.706 17.6241 209.706 14.5247C209.706 14.393 209.711 14.2613 209.724 14.1322C209.731 14.041 209.79 13.9853 209.881 13.9752C209.962 13.9676 210.043 13.9651 210.122 13.9651C211.546 13.9651 212.972 13.9651 214.396 13.9651C214.427 13.9651 214.457 13.9676 214.488 13.9651C214.655 13.9524 214.774 14.0258 214.878 14.1525C215.164 14.507 215.456 14.8539 215.745 15.2033C216.505 16.12 217.267 17.0366 218.028 17.9558C218.763 18.8421 219.497 19.7283 220.232 20.6146C220.871 21.3844 221.509 22.1516 222.148 22.9214C222.678 23.5595 223.205 24.1976 223.732 24.8357C223.795 24.9142 223.861 24.9902 223.929 25.0662C223.947 25.0864 223.98 25.1041 224.005 25.1041C224.038 25.1016 224.048 25.0662 224.051 25.0358C224.053 24.9345 224.056 24.8332 224.056 24.7319C224.056 21.8022 224.056 18.875 224.056 15.9452C224.056 15.4616 224.056 14.9754 224.056 14.4918C224.056 14.431 224.056 14.3702 224.056 14.3094C224.061 13.9929 224.084 13.9651 224.406 13.9651C225.569 13.9625 226.729 13.9651 227.892 13.9651C228.468 13.9651 229.045 13.9625 229.621 13.9651C229.988 13.9676 230.016 13.9929 230.018 14.3626C230.021 14.7374 230.018 15.1096 230.018 15.4844C230.021 18.5281 230.021 21.5768 230.021 24.6281Z" fill="white"/>
<path d="M193.168 35.2532C192.218 35.2532 191.267 35.2532 190.317 35.2532C190.226 35.2532 190.135 35.2481 190.046 35.2354C190.005 35.2304 189.975 35.1873 189.988 35.1443C190.008 35.0784 190.036 35.0126 190.066 34.9493C190.342 34.4201 190.619 33.8934 190.897 33.3667C191.13 32.9286 191.369 32.4956 191.599 32.0575C192.053 31.2017 192.501 30.3407 192.957 29.4848C193.545 28.3783 194.136 27.2743 194.726 26.1702C194.944 25.76 195.159 25.3498 195.377 24.937C196.001 23.7596 196.622 22.5796 197.247 21.4021C197.729 20.4931 198.215 19.584 198.699 18.675C199.244 17.6494 199.789 16.6239 200.334 15.5984C200.577 15.1451 200.823 14.6918 201.066 14.2386C201.089 14.193 201.114 14.1499 201.14 14.1069C201.183 14.0335 201.249 13.9879 201.335 13.9803C201.416 13.9727 201.497 13.9702 201.578 13.9702C203.468 13.9702 205.359 13.9727 207.249 13.9702C207.642 13.9702 207.647 14.0233 207.482 14.3323C207.031 15.178 206.58 16.0263 206.129 16.872C205.911 17.2823 205.693 17.6925 205.478 18.1052C205.012 18.989 204.55 19.8752 204.082 20.7589C203.466 21.9187 202.848 23.0759 202.232 24.2356C202.032 24.6104 201.834 24.9852 201.636 25.3599C201.165 26.2538 200.696 27.1476 200.225 28.0415C199.673 29.0873 199.118 30.1306 198.565 31.1738C198.048 32.1462 197.534 33.1185 197.017 34.0909C196.86 34.3846 196.703 34.6784 196.548 34.9721C196.533 34.9999 196.518 35.0253 196.505 35.0531C196.444 35.1848 196.345 35.2557 196.193 35.2481C196.112 35.2456 196.031 35.2481 195.95 35.2481C195.028 35.2506 194.098 35.2506 193.168 35.2532C193.168 35.2506 193.168 35.2506 193.168 35.2532Z" fill="url(#paint0_linear_2254_156)"/>
<path d="M210.196 6.88C211.935 6.88 213.673 6.88 215.411 6.88C215.502 6.88 215.594 6.87999 215.685 6.88252C215.723 6.88252 215.774 6.87999 215.789 6.92304C215.806 6.97368 215.758 6.98888 215.723 7.00661C215.3 7.20158 214.879 7.39402 214.456 7.58647C213.903 7.83716 213.351 8.08531 212.799 8.33347C212.292 8.56136 211.785 8.78673 211.278 9.01462C210.799 9.22986 210.32 9.44509 209.841 9.66286C209.279 9.91608 208.719 10.1693 208.156 10.4225C207.66 10.6479 207.163 10.8732 206.666 11.0986C205.901 11.443 205.136 11.7848 204.373 12.1317C203.838 12.3723 203.306 12.6179 202.774 12.861C202.333 13.0611 201.89 13.2611 201.449 13.4611C201.421 13.4738 201.391 13.4814 201.363 13.489C201.325 13.4991 201.282 13.4485 201.297 13.4105C201.325 13.3345 201.355 13.2611 201.391 13.1877C201.892 12.1621 202.397 11.1391 202.898 10.1161C203.365 9.16402 203.831 8.21192 204.297 7.25982C204.48 6.88759 204.482 6.88759 204.893 6.88759C206.661 6.88 208.428 6.88 210.196 6.88Z" fill="#53CFD2"/>
<path fill-rule="evenodd" clip-rule="evenodd" d="M1.32461 13.76C1.44097 13.76 9.94357 13.76 10.1047 13.76C10.2896 13.76 10.5134 13.76 10.7759 13.76C11.0265 13.76 11.3487 13.76 11.7067 13.76C12.0647 13.76 12.4764 13.76 12.9329 13.76C13.3983 13.76 13.9264 13.76 14.5171 13.76C15.1078 13.76 15.7611 13.76 16.495 13.76C17.22 13.76 30.9674 13.76 31.8445 13.76H46.1468C47.6772 13.76 48.9123 14.3328 49.87 15.4605C50.8187 16.5882 51.132 17.895 50.8187 19.3717C50.8187 19.3717 50.7382 19.7745 50.5413 20.5979C50.3623 21.4123 50.04 22.8623 49.5478 24.9566C49.2882 25.9948 48.7244 26.863 47.8652 27.5432C47.006 28.2323 45.9946 28.5635 44.8669 28.5635C44.8579 28.5635 44.849 28.5635 44.8132 28.5635C44.7953 28.5635 44.7416 28.5635 44.6879 28.5635C44.6222 28.5635 44.5387 28.5635 44.4373 28.5635C44.3388 28.5635 44.2046 28.5635 44.0435 28.5635C43.8764 28.5635 43.6765 28.5635 43.4438 28.5635C43.1932 28.5635 42.9247 28.5635 42.5936 28.5635C42.2773 28.5635 41.9074 28.5635 41.4837 28.5635C41.072 28.5635 40.5977 28.5635 40.0696 28.5635C39.5326 28.5635 38.933 28.5635 38.2707 28.5635C37.6173 28.5635 36.8834 28.5635 36.0958 28.5635C35.2903 28.5635 34.4221 28.5635 33.4734 28.5635C33.4734 28.5635 33.4734 28.5545 33.4734 28.5456C33.4645 28.5635 33.4465 28.5993 33.4376 28.653C33.4286 28.6977 33.4197 28.7514 33.4018 28.823C33.3839 28.8857 33.366 28.9841 33.3481 29.0736C33.3212 29.1721 33.2944 29.2884 33.2586 29.4227C33.2317 29.5659 33.187 29.7091 33.1512 29.8791C33.0975 30.0492 33.0617 30.2371 33.008 30.452C32.9632 30.6578 32.9006 30.8905 32.8469 31.159C32.7842 31.4186 32.7216 31.705 32.65 32.0182C32.5873 32.3315 32.4978 32.6716 32.4173 33.0385C32.3278 33.4055 32.2383 33.7993 32.1398 34.2379C32.0324 34.6675 31.925 35.1239 31.8087 35.6072C31.8087 35.6072 31.8087 35.6072 31.7997 35.6072C31.7997 35.6072 31.7818 35.6072 31.746 35.6072C31.7281 35.6072 31.6744 35.6072 31.6118 35.6072C31.5402 35.6072 31.4417 35.6072 31.3164 35.6072C31.2001 35.6072 31.0479 35.6072 30.86 35.6072C30.681 35.6072 30.4483 35.6072 30.1708 35.6072C29.9113 35.6072 29.5891 35.6072 29.2132 35.6072C28.8551 35.6072 28.4315 35.6072 27.9422 35.6072C27.4679 35.6072 26.913 35.6072 26.3133 35.6072C26.3133 35.5983 26.3133 35.5893 26.3223 35.5535C26.3223 35.5237 26.3342 35.4819 26.3581 35.4282C26.367 35.3745 26.3849 35.294 26.4207 35.1866C26.4565 35.0792 26.4834 34.9449 26.5192 34.7838C26.555 34.6138 26.5997 34.4168 26.6624 34.1662C26.7071 33.9335 26.7787 33.6561 26.8682 33.3249C26.9488 32.9938 27.0293 32.6268 27.1367 32.2062C27.2441 31.7855 27.3515 31.2933 27.4768 30.7563C27.6021 30.2282 27.7543 29.6285 27.9154 28.9573C28.0675 28.295 28.2465 27.5611 28.4434 26.7735C28.6403 25.9679 28.8372 25.0908 29.0699 24.1242L29.231 23.4619H34.6906L34.6727 23.4798H43.8913C44.2225 23.4798 44.4373 23.3277 44.5357 23.0144C44.5357 23.0144 44.8311 21.8509 45.4039 19.5328C45.4486 19.327 45.3949 19.148 45.2607 19.0048C45.1354 18.8437 44.9653 18.7721 44.7595 18.7721C44.7505 18.7721 44.7326 18.7721 44.7058 18.7721C44.6879 18.7721 44.6431 18.7721 44.5894 18.7721C44.5268 18.7721 44.4462 18.7721 44.3478 18.7721C44.2523 18.7721 44.127 18.7721 43.9719 18.7721C43.8108 18.7721 43.6049 18.7721 43.3722 18.7721C43.1395 18.7721 42.871 18.7721 42.5667 18.7721C42.2564 18.7721 41.8955 18.7721 41.4837 18.7721H40.2397V18.7452H36.8834V18.7721C36.8744 18.7721 36.8565 18.7721 36.8297 18.7721C36.8118 18.7721 36.767 18.7721 36.7133 18.7721C36.6507 18.7721 36.5701 18.7721 36.4717 18.7721C36.3822 18.7721 36.239 18.7721 36.0779 18.7721C35.9257 18.7721 35.7199 18.7721 35.5051 18.7721C35.2724 18.7721 34.9949 18.7721 34.6996 18.7721C34.3774 18.7721 34.0194 18.7721 33.6077 18.7721C33.2049 18.7721 32.7395 18.7721 32.2204 18.7721H4.18865L4.24235 18.5573L4.5556 17.3221L1.32461 13.76ZM33.4734 28.5456C33.4734 28.5187 33.4823 28.4919 33.4823 28.4919C33.4823 28.4919 33.4734 28.5008 33.4734 28.5277C33.4734 28.5277 33.4734 28.5366 33.4734 28.5456ZM94.8954 28.5366H91.4675C91.4585 28.5724 91.4585 28.5993 91.4406 28.6351C91.4317 28.6798 91.4138 28.7425 91.3959 28.8051C91.3839 28.8767 91.363 28.9603 91.3332 29.0557C91.3153 29.1631 91.2795 29.2705 91.2616 29.4048C91.2258 29.5301 91.199 29.6822 91.1542 29.8523C91.1184 30.0223 91.0826 30.2103 91.0289 30.4341C90.9752 30.6399 90.9215 30.8905 90.8678 31.1411C90.8052 31.3917 90.7425 31.6781 90.653 31.9824C90.5814 32.3046 90.5009 32.6447 90.4203 33.0027C90.3398 33.3786 90.2503 33.7724 90.1518 34.202C90.0534 34.6406 89.9459 35.0971 89.8385 35.5804H84.4058L87.2699 23.4619H101.742C102.073 23.4619 102.297 23.3187 102.404 23.0144C102.404 23.0144 102.673 21.8509 103.237 19.5239C103.264 19.318 103.219 19.1569 103.076 18.9958C102.95 18.8347 102.789 18.7542 102.601 18.7542H88.3976L88.7108 17.3669L88.7824 17.1789L85.6946 13.76H103.953C105.456 13.76 106.683 14.3328 107.622 15.4605C108.562 16.5972 108.893 17.895 108.589 19.3717C108.589 19.3717 108.491 19.7745 108.312 20.5889C108.133 21.4034 107.801 22.8444 107.336 24.9387C107.076 25.9858 106.522 26.863 105.671 27.5253C104.821 28.2055 103.828 28.5366 102.709 28.5366H100.722L109.403 43H103.586L94.8954 28.5366ZM91.4764 28.474C91.4764 28.4829 91.4675 28.4919 91.4675 28.5277C91.4675 28.5277 91.4764 28.5187 91.4764 28.5098C91.4764 28.5008 91.4764 28.4829 91.4764 28.474ZM91.4585 28.5366H91.4675C91.4675 28.5366 91.4675 28.5336 91.4675 28.5277C91.4585 28.5366 91.4585 28.5366 91.4585 28.5366ZM110.325 13.76H132.736L131.51 18.7363H124.484L120.922 35.6072H115.731L119.365 18.7363H112.124L112.706 16.3824L110.325 13.76ZM17.3095 22.1373C18.7773 22.1373 19.9587 22.7101 20.8358 23.8468C21.713 24.9834 21.9725 26.2812 21.6324 27.7669C21.6324 27.7669 21.6324 27.7669 21.6324 27.7759C21.6324 27.7848 21.6324 27.7938 21.6235 27.8206C21.6235 27.8385 21.6145 27.8743 21.6056 27.928C21.5966 27.9638 21.5698 28.0444 21.5519 28.1339C21.534 28.2323 21.5071 28.3487 21.4624 28.4829C21.4266 28.6351 21.3818 28.8051 21.3281 29.011C21.2834 29.2258 21.2207 29.4764 21.1491 29.7538C21.0865 30.0402 20.9969 30.3625 20.9074 30.7384C20.8179 31.1053 20.7195 31.526 20.6121 31.9914C20.3257 33.0654 19.7618 33.9246 18.9116 34.5959C18.0643 35.2701 17.0798 35.6072 15.958 35.6072C15.9491 35.6072 15.9401 35.6072 15.9043 35.6072C15.8775 35.6072 15.8327 35.6072 15.7701 35.6072C15.7074 35.6072 15.609 35.6072 15.5016 35.6072C15.3763 35.6072 15.242 35.6072 15.063 35.6072C14.884 35.6072 14.6603 35.6072 14.3918 35.6072C14.1412 35.6072 13.819 35.6072 13.461 35.6072C13.103 35.6072 12.7002 35.6072 12.2348 35.6072C11.7694 35.6072 11.2413 35.6072 10.6596 35.6072C10.0808 35.6072 9.42745 35.6072 8.69951 35.6072C7.97455 35.6072 7.17799 35.6072 6.30088 35.6072C5.40586 35.6072 4.4482 35.6072 3.40104 35.6072C2.36283 35.6072 1.23511 35.6072 0 35.6072C0 35.5983 5.02989e-07 35.5893 0.00895061 35.5535C0.00895061 35.5267 0.0178998 35.4819 0.0358 35.4193C0.0447501 35.3656 0.0805514 35.285 0.0984516 35.1776C0.134252 35.0613 0.161101 34.9181 0.205851 34.757C0.250602 34.569 0.304304 34.3632 0.358004 34.1125C0.411705 33.8619 0.474357 33.5666 0.554908 33.2175C0.644409 32.8864 0.733908 32.4836 0.84131 32.0361C0.957661 31.5886 1.07401 31.0964 1.19931 30.5415C1.19931 30.5415 1.19931 30.5415 1.20826 30.5415C1.20826 30.5415 1.23512 30.5415 1.26197 30.5415C1.28882 30.5415 1.32462 30.5415 1.37832 30.5415C1.44097 30.5415 1.52152 30.5415 1.61997 30.5415C1.71842 30.5415 1.84372 30.5415 2.01377 30.5415C2.16593 30.5415 2.36283 30.5415 2.59553 30.5415C2.81928 30.5415 3.07884 30.5415 3.40104 30.5415C3.70534 30.5415 4.06335 30.5415 4.4661 30.5415C4.87781 30.5415 5.34321 30.5415 5.86232 30.5415C6.38143 30.5415 6.95423 30.5415 7.59864 30.5415C8.2341 30.5415 8.94116 30.5415 9.71087 30.5415C10.4895 30.5415 11.3398 30.5415 12.2616 30.5415C13.1656 30.5415 14.168 30.5415 15.242 30.5415C15.5463 30.5415 15.7611 30.3893 15.8864 30.0671C15.8864 30.0581 15.8864 30.0402 15.8864 30.0134C15.8954 29.9955 15.8954 29.9507 15.9043 29.9149C15.9312 29.8523 15.9491 29.7717 15.967 29.6643C16.0028 29.5748 16.0296 29.4316 16.0654 29.2884C16.1102 29.1273 16.146 28.9483 16.1997 28.7156C16.2623 28.4829 16.316 28.2234 16.3787 27.9101C16.4682 27.7222 16.4413 27.5432 16.325 27.3821C16.2086 27.2299 16.0654 27.1404 15.8596 27.1404C15.8506 27.1404 15.8417 27.1404 15.8238 27.1404C15.788 27.1404 15.7611 27.1404 15.7164 27.1404C15.6627 27.1404 15.5911 27.1404 15.4837 27.1404C15.3942 27.1404 15.2599 27.1404 15.1167 27.1404C14.9556 27.1404 14.7856 27.1404 14.5708 27.1404C14.3649 27.1404 14.0964 27.1404 13.8011 27.1404C13.5147 27.1404 13.1775 27.1404 12.7897 27.1404C12.4048 27.1404 11.9663 27.1404 11.474 27.1404C10.9907 27.1404 10.4448 27.1404 9.83617 27.1404C9.23651 27.1404 8.58315 27.1404 7.85819 27.1404C6.39038 27.1404 5.21791 26.5945 4.33185 25.4846C3.57109 24.5091 3.26679 23.3993 3.41894 22.1373H17.3095Z" fill="white"/>
<path d="M135.525 13.76H143.555H143.572H143.607H143.625H143.642H143.66H143.677H143.712H143.73H143.747H143.765H143.782H143.8H143.835H143.852H143.87H143.887H143.905H144.027C144.167 13.76 144.325 13.76 144.517 13.76C144.675 13.76 144.902 13.76 145.165 13.76C145.444 13.76 145.742 13.76 146.127 13.76C146.494 13.76 146.914 13.76 147.386 13.76C147.865 13.76 148.401 13.76 148.996 13.76C149.591 13.76 150.273 13.76 151.025 13.76C151.76 13.76 152.583 13.76 153.475 13.76C154.385 13.76 155.376 13.76 156.449 13.76C157.534 13.76 158.688 13.76 159.948 13.76V13.7775C159.948 13.7775 159.948 13.8126 159.948 13.8301C159.948 13.8476 159.931 13.9002 159.913 13.9703C159.89 14.0287 159.866 14.1105 159.843 14.2156C159.82 14.3207 159.779 14.4668 159.721 14.6537C159.686 14.8114 159.616 15.0217 159.546 15.267C159.493 15.5299 159.423 15.8278 159.318 16.1607C159.248 16.5112 159.143 16.9142 159.038 17.3698C158.916 17.8254 158.776 18.3161 158.636 18.8944H158.618C158.618 18.8944 158.601 18.8944 158.583 18.8944C158.56 18.8944 158.519 18.8944 158.461 18.8944C158.403 18.8944 158.321 18.8944 158.216 18.8944C158.129 18.8944 157.989 18.8944 157.814 18.8944C157.656 18.8944 157.446 18.8944 157.219 18.8944C156.991 18.8944 156.694 18.8944 156.396 18.8944C156.082 18.8944 155.714 18.8944 155.294 18.8944C154.886 18.8944 154.414 18.8944 153.877 18.8944H152.215H152.198H152.18H152.128H152.11H152.093H152.058H152.04H151.988H151.97H151.935H151.9H151.865H151.848H151.813H151.778H151.743H151.708H151.673H151.638H151.62H151.585H151.55H151.515H151.498H151.445H151.41H151.393H151.358H151.323H151.288H151.253H151.218H151.183H151.165H151.13H151.078H151.06H151.025H150.973H150.955H150.92H150.868H150.85H150.816H150.763H150.746H150.711H150.676H150.641H150.606H150.571H150.518H150.501H150.466H150.413H150.396H150.361H150.326H150.273H150.256H150.221H150.168H150.133H150.116H150.063H150.028H149.993H149.941H149.923H149.888H149.836H149.801H149.766H149.731H149.696H149.661H149.608H149.573H149.556H149.503H149.468H149.433H149.381H149.346H149.311H149.258H149.241H149.206H149.153H149.118H149.083H149.031H148.996H148.961H148.909H148.874H148.821H148.786H148.751H148.699H148.664H148.646H148.594H148.559H148.524H148.471H148.436H148.401H148.349H148.314H148.244H148.209H148.174H148.121H148.086H148.051H147.999H147.964H147.911H147.876H147.841H147.789H147.754H147.719H147.666H147.614H147.561H147.526H147.491H147.439H147.404H147.369H147.316H147.264H147.211H147.176H147.142H147.089H147.054H146.984H146.949H146.914H146.862H146.827H146.757H146.722H146.687H146.634H146.599H146.529H146.494H146.459H146.407H146.354H146.302H146.267H146.232H146.162H146.127H146.074H146.022H145.969H145.934H145.882H145.829H145.794H145.724H145.689H145.654H145.584H145.549H145.497H145.444H145.392H145.357H145.287H145.252H145.2H145.147H145.112H145.042H145.007H144.937H144.902H144.867H144.797H144.762H144.692H144.657H144.587H144.552H144.482H144.447H144.395H144.342H144.29H138.464L138.499 18.6666L138.831 17.4049L135.525 13.76ZM143.747 22.3465H143.765H143.782H143.8H143.835H143.852H143.87H143.887H143.905H143.94H143.957H143.975H143.992H144.01H144.027H144.062H144.08H144.097H144.115H144.132H144.15H144.185H144.202H144.22H144.237H144.255H144.29H144.307H144.325H144.342H144.36H144.395H144.412H144.43H144.447H144.465H144.482H144.517H144.535H144.552H144.57H144.587H144.605H144.64H144.657H144.675H144.692H144.71H144.745H144.762H144.78H144.797H144.815H144.832H144.867H144.885H144.902H144.92H144.937H144.972H144.99H145.007H145.025H145.042H145.06H145.095H145.112H145.13H145.147H145.165H145.2H145.217H145.235H145.252H145.27H145.287H145.322H145.339H145.357H145.374H145.392H145.427H145.444H145.462H145.479H145.497H145.514H145.549H145.567H145.584H145.602H145.619H145.654H145.672H145.689H145.707H145.724H145.742H145.777H145.794H145.812H145.829H145.847H145.882H145.899H145.917H145.934H145.952H145.969H146.004H146.022H146.039H146.057H146.074H146.109H146.127H146.144H146.162H146.179H146.197H146.232H146.249H146.267H146.284H146.302H146.337H146.354H146.372H146.389H146.407H146.424H146.459H146.477H146.494H146.512H146.529H146.564H146.582H146.599H146.617H146.634H146.652H146.687H146.704H146.722H146.739H146.757H146.792H146.809H146.827H146.844H146.862H146.879H146.914H146.932H146.949H146.967H146.984H147.002H147.037H147.054H147.072H147.089H147.107H147.142H147.159H147.176H147.194H147.211H147.229H147.264H147.281H147.299H147.316H147.334H147.369H147.386H147.404H147.421H147.439H147.456H147.491H147.509H147.526H147.544H147.561H147.596H147.614H147.631H147.649H147.666H147.684H147.719H147.736H147.754H147.771H147.789H147.824H147.841H147.859H147.876H147.894H147.946H147.964H147.981H147.999H148.016H148.051H148.069H148.086H148.104H148.121H148.139H148.191H148.209H148.226H148.244H148.279H148.296H148.314H148.349H148.366H148.401H148.419H148.436H148.454H148.506H148.524H148.541H148.559H148.576H148.594H148.646H148.664H148.681H148.699H148.734H148.769H148.786H148.804H148.821H148.874H148.891H148.909H148.926H148.979H148.996H149.013H149.031H149.083H149.101H149.118H149.136H149.188H149.206H149.223H149.258H149.276H149.311H149.346H149.363H149.381H149.433H149.451H149.468H149.503H149.538H149.556H149.591H149.608H149.626H149.678H149.696H149.713H149.766H149.783H149.818H149.836H149.853H149.906H149.923H149.941H149.993H150.011H150.046H150.063H150.116H150.133H150.151H150.186H150.221H150.256H150.273H150.308H150.343H150.361H150.396H150.413H150.466H150.483H150.518H150.536H150.588H150.606H150.641H150.676H150.711H150.728H150.763H150.798H150.833H150.85H150.903H150.92H150.955H150.99H151.025H151.06H151.078H151.13H151.148H151.183H151.218H151.253H151.288H151.305H151.358H151.375H151.41H151.445H151.48H151.515H151.55H151.585H151.62H151.638H151.673H151.725H151.743H151.778H151.83H151.848C153.352 22.3465 154.548 22.9248 155.434 24.0813C156.327 25.2554 156.624 26.5872 156.274 28.1118C156.274 28.1118 156.274 28.1293 156.274 28.1468C156.239 28.1643 156.239 28.1994 156.222 28.2519C156.222 28.3045 156.204 28.3746 156.187 28.4797C156.169 28.5674 156.152 28.69 156.099 28.8302C156.064 28.9704 155.994 29.1632 155.959 29.3734C155.924 29.6012 155.854 29.8466 155.767 30.127C155.708 30.419 155.627 30.752 155.522 31.1258C155.434 31.5113 155.329 31.9319 155.207 32.4225C154.927 33.509 154.35 34.4027 153.475 35.0861C152.618 35.787 151.62 36.12 150.466 36.12C150.466 36.12 150.448 36.12 150.413 36.12C150.378 36.12 150.343 36.12 150.273 36.12C150.221 36.12 150.116 36.12 150.011 36.12C149.888 36.12 149.731 36.12 149.556 36.12C149.369 36.12 149.142 36.12 148.874 36.12C148.594 36.12 148.296 36.12 147.911 36.12C147.544 36.12 147.142 36.12 146.652 36.12C146.197 36.12 145.654 36.12 145.06 36.12C144.465 36.12 143.782 36.12 143.048 36.12C142.313 36.12 141.491 36.12 140.598 36.12C139.689 36.12 138.726 36.12 137.642 36.12C136.574 36.12 135.42 36.12 134.16 36.12C134.16 36.12 134.16 36.0849 134.178 36.0674C134.178 36.0324 134.178 35.9973 134.195 35.9272C134.213 35.8571 134.248 35.787 134.283 35.6819C134.3 35.5592 134.335 35.4015 134.387 35.2438C134.422 35.0511 134.492 34.8232 134.527 34.5779C134.597 34.3326 134.65 34.0172 134.737 33.6667C134.825 33.3162 134.93 32.9307 135.017 32.4751C135.157 32.0195 135.245 31.4938 135.402 30.933C135.42 30.933 135.42 30.933 135.455 30.933C135.478 30.933 135.519 30.933 135.577 30.933C135.647 30.933 135.7 30.933 135.822 30.933C135.927 30.933 136.067 30.933 136.224 30.933C136.382 30.933 136.574 30.933 136.819 30.933C137.047 30.933 137.327 30.933 137.642 30.933C137.957 30.933 138.324 30.933 138.744 30.933C139.164 30.933 139.636 30.933 140.143 30.933C140.686 30.933 141.263 30.933 141.928 30.933C142.593 30.933 143.316 30.933 144.097 30.933C144.885 30.933 145.742 30.933 146.687 30.933C147.631 30.933 148.646 30.933 149.731 30.933C150.046 30.933 150.273 30.7753 150.396 30.4424C150.396 30.4424 150.396 30.4249 150.396 30.4073C150.396 30.3723 150.396 30.3372 150.413 30.2847C150.448 30.2321 150.466 30.1445 150.483 30.0569C150.501 29.9517 150.536 29.794 150.588 29.6538C150.623 29.4961 150.676 29.3033 150.728 29.058C150.763 28.8302 150.833 28.5674 150.903 28.2519C150.973 28.0416 150.955 27.8489 150.85 27.7087C150.728 27.551 150.571 27.4634 150.378 27.4634C150.378 27.4634 150.361 27.4634 150.343 27.4634C150.291 27.4634 150.273 27.4634 150.221 27.4634C150.168 27.4634 150.081 27.4634 149.993 27.4634C149.888 27.4634 149.76 27.4634 149.608 27.4634C149.445 27.4634 149.258 27.4634 149.048 27.4634C148.821 27.4634 148.576 27.4634 148.279 27.4634C147.981 27.4634 147.631 27.4634 147.229 27.4634C146.844 27.4634 146.389 27.4634 145.899 27.4634C145.398 27.4634 144.838 27.4634 144.22 27.4634C143.607 27.4634 142.925 27.4634 142.19 27.4634C140.686 27.4634 139.496 26.8851 138.604 25.7461C137.817 24.7648 137.502 23.6257 137.642 22.3465H143.747Z" fill="white"/>
<g clip-path="url(#clip0_2254_156)">
<path d="M79.61 14.8509C81.9505 13.5037 84.865 11.5832 87.3144 7.88758C89.7638 4.192 87.8884 0 87.8884 0C87.8802 2.3183 86.6184 6.30472 82.9402 8.84533C79.7881 11.0282 77.8269 9.15956 79.3263 7.12039C80.8256 5.08122 82.3678 4.7486 82.3678 4.7486C82.3678 4.7486 79.1201 4.56139 77.0368 6.74264C73.9903 9.9301 73.1475 13.9048 71.7851 14.3645C70.6832 14.7355 69.6589 13.6792 70.6849 12.1715C71.7108 10.6639 73.7033 9.34676 73.2267 7.38615C71.9071 10.4583 69.5979 9.90168 66.4838 13.0942C61.8176 17.8695 62.761 27.1895 70.3814 27.0608C78.6516 26.9204 80.2169 20.7411 81.1373 17.7943C82.0577 14.8475 83.1051 14.7673 83.1051 14.7673C83.1051 14.7673 81.4952 14.7539 80.4017 16.9519C79.3081 19.1498 78.0925 19.1131 77.7115 18.5381C77.3304 17.9631 77.276 16.198 79.61 14.8509Z" fill="white"/>
<path d="M79.0129 12.464C75.907 13.9951 74.6749 17.7241 74.5594 19.6997C74.3697 23.1396 70.8152 26.5343 68.2586 24.1057C66.563 22.4927 67.8562 18.9325 70.8977 17.7074C74.6238 16.2114 74.3632 13.3917 79.0129 12.464Z" fill="url(#paint1_linear_2254_156)"/>
<path d="M72.4611 34.289C76.9399 29.7505 76.9399 22.3921 72.4611 17.8536C67.9824 13.315 60.721 13.315 56.2423 17.8536C51.7635 22.3921 51.7635 29.7505 56.2423 34.289C60.721 38.8275 67.9824 38.8275 72.4611 34.289Z" fill="white"/>
<path d="M84.3537 15.2888C83.9949 15.5169 83.6682 15.7929 83.3822 16.1095C83.1099 16.4245 82.8874 16.7803 82.7224 17.1642C82.3793 17.9247 82.2276 18.7638 82.0758 19.6095C81.9241 20.4553 81.7789 21.3194 81.5727 22.1785C81.4742 22.6246 81.3413 23.0622 81.1752 23.4873C80.9995 23.9223 80.7783 24.3369 80.5155 24.7242C79.9866 25.4924 79.3183 26.1516 78.546 26.6664C77.9102 27.0841 77.3973 27.6679 77.0616 28.3562C76.9782 28.5275 76.9054 28.7039 76.8438 28.8844C76.7828 29.0666 76.7416 29.2387 76.6789 29.4711C76.563 29.9091 76.4236 30.3404 76.2616 30.7631C75.2811 33.3208 73.5218 35.4952 71.2391 36.9709C69.7225 37.9465 68.0211 38.5894 66.2444 38.8582C64.4678 39.1271 62.6552 39.016 60.9235 38.532C59.1884 38.0534 57.5744 37.2042 56.1897 36.0416C54.4589 34.5846 53.1384 32.6904 52.3616 30.5505C51.5848 28.4106 51.3794 26.1008 51.766 23.8546C52.1526 21.6084 53.1176 19.5055 54.5634 17.7584C56.0092 16.0113 57.8845 14.682 59.9999 13.9048C60.8419 13.5981 61.7131 13.3808 62.5994 13.2563C62.8105 13.2262 63.02 13.1978 63.1981 13.1627C63.349 13.1385 63.4946 13.0882 63.6286 13.014C63.9417 12.8021 64.23 12.5548 64.488 12.2768L64.9432 11.8256C65.1081 11.6684 65.2731 11.5147 65.438 11.3659C65.7754 11.0648 66.1313 10.7857 66.5036 10.5302C67.2517 10.0311 68.0688 9.64749 68.9282 9.39192C69.3389 9.2582 69.7364 9.1412 70.1043 8.98409C70.287 8.90954 70.4644 8.82242 70.6354 8.72334C70.7211 8.67152 70.8003 8.61637 70.8877 8.55619L71.1484 8.37401C71.4876 8.13638 71.7977 7.85863 72.072 7.54664C72.3588 7.23676 72.5383 6.84075 72.5834 6.41841C72.6372 6.868 72.5377 7.32275 72.3013 7.7071C72.0753 8.09624 71.7978 8.45222 71.4766 8.76513L71.2407 8.99411C71.1582 9.071 71.0758 9.14789 70.9818 9.21976C70.8021 9.36399 70.6118 9.49418 70.4127 9.60921C70.0277 9.82634 69.63 10.0195 69.2218 10.1875C68.8326 10.3547 68.4664 10.5369 68.1134 10.7358C67.7639 10.9343 67.4288 11.1577 67.1105 11.4043C66.7874 11.6527 66.4785 11.9195 66.1852 12.2033C66.0351 12.3454 65.8883 12.4891 65.7448 12.6379C65.6013 12.7866 65.4562 12.9521 65.2912 13.1042C65.1263 13.2563 64.9762 13.4168 64.8046 13.5739C64.6176 13.7483 64.413 13.9023 64.1944 14.0335C63.954 14.1688 63.6932 14.2626 63.4224 14.311C63.1816 14.3595 62.9672 14.3862 62.7627 14.4163C61.9562 14.5319 61.1636 14.7313 60.3974 15.0113C58.8638 15.5759 57.4657 16.4635 56.2952 17.6155C55.1206 18.7625 54.1991 20.1488 53.5915 21.6829C52.984 23.2171 52.7041 24.8642 52.7704 26.516C52.83 28.1667 53.2348 29.7858 53.958 31.2662C54.682 32.7456 55.7035 34.0551 56.9567 35.1106C59.4457 37.235 62.8567 38.1643 66.0747 37.6779C68.097 37.3802 70.0051 36.5439 71.6041 35.2545C73.2032 33.9651 74.4358 32.2687 75.1763 30.3386C75.3244 29.9558 75.4521 29.5652 75.5589 29.1685C75.6084 28.9847 75.6678 28.7356 75.747 28.51C75.8237 28.2811 75.9157 28.0577 76.0224 27.8414C76.4495 26.9714 77.0945 26.2302 77.8929 25.6919C78.2187 25.4636 78.5275 25.211 78.8165 24.9364C79.1027 24.6652 79.3664 24.3706 79.605 24.0556C79.8462 23.7421 80.0577 23.4064 80.2367 23.0527C80.4167 22.6871 80.5678 22.3076 80.6887 21.9178C80.9575 21.1138 81.1835 20.2864 81.4243 19.449C81.6651 18.6117 81.9323 17.7575 82.3942 16.9853C82.6246 16.6018 82.9142 16.2582 83.2519 15.9674C83.5829 15.6856 83.9544 15.4568 84.3537 15.2888Z" fill="url(#paint2_linear_2254_156)"/>
<path fill-rule="evenodd" clip-rule="evenodd" d="M75.5158 26C75.5158 31.9831 70.6436 36.8333 64.6334 36.8333C63.6852 36.8333 62.7654 36.7126 61.8885 36.4858C61.7988 35.0281 61.7657 32.1821 62.7383 29.3371C63.3989 27.4046 64.5149 25.5173 66.3712 24.1108C68.2211 22.7091 70.8601 21.744 74.6428 21.7416C75.2047 23.0488 75.5158 24.4882 75.5158 26ZM57.3701 34.0674C58.3148 34.9108 59.4083 35.5921 60.6067 36.0676C60.5914 35.6786 60.5834 35.2253 60.5931 34.7234C60.6236 33.1318 60.8306 31.0307 61.5486 28.9305C62.2678 26.8267 63.5071 24.7035 65.6119 23.1087C67.6051 21.5985 70.3263 20.5986 74.0071 20.4935C73.641 19.8771 73.2152 19.3 72.7378 18.77C68.6976 18.7258 65.739 19.5641 63.5697 20.8537C61.0807 22.3333 59.5731 24.4412 58.6659 26.628C57.5156 29.4008 57.3407 32.2507 57.3701 34.0674ZM56.129 32.7599C56.2054 30.9195 56.5243 28.5093 57.5046 26.1463C58.4937 23.7621 60.1603 21.4178 62.9272 19.773C65.0739 18.4969 67.848 17.6625 71.4186 17.5298C69.558 16.0508 67.1994 15.1667 64.6334 15.1667C58.6232 15.1667 53.751 20.0169 53.751 26C53.751 28.5569 54.6408 30.9069 56.129 32.7599Z" fill="url(#paint3_linear_2254_156)"/>
</g>
<defs>
<linearGradient id="paint0_linear_2254_156" x1="203.422" y1="15.1077" x2="193.708" y2="35.08" gradientUnits="userSpaceOnUse">
<stop stop-color="#54BFD4"/>
<stop offset="0.4395" stop-color="#5D57E3"/>
<stop offset="0.5114" stop-color="#6654DE"/>
<stop offset="0.6272" stop-color="#7D4CD1"/>
<stop offset="0.7724" stop-color="#A440BB"/>
<stop offset="0.9398" stop-color="#D92E9D"/>
<stop offset="0.958" stop-color="#DF2C99"/>
</linearGradient>
<linearGradient id="paint1_linear_2254_156" x1="76.2914" y1="13.1302" x2="70.9955" y2="25.2863" gradientUnits="userSpaceOnUse">
<stop stop-color="#54BFD4"/>
<stop offset="0.4395" stop-color="#5D57E3"/>
<stop offset="0.5114" stop-color="#6654DE"/>
<stop offset="0.6272" stop-color="#7D4CD1"/>
<stop offset="0.7724" stop-color="#A440BB"/>
<stop offset="0.9398" stop-color="#D92E9D"/>
<stop offset="0.958" stop-color="#DF2C99"/>
</linearGradient>
<linearGradient id="paint2_linear_2254_156" x1="51.5759" y1="25.0372" x2="84.3661" y2="24.8065" gradientUnits="userSpaceOnUse">
<stop stop-color="#05D6D9"/>
<stop offset="1" stop-color="#F907FC"/>
</linearGradient>
<linearGradient id="paint3_linear_2254_156" x1="53.751" y1="27.5476" x2="75.524" y2="27.3947" gradientUnits="userSpaceOnUse">
<stop stop-color="#05D6D9"/>
<stop offset="1" stop-color="#F907FC"/>
</linearGradient>
<clipPath id="clip0_2254_156">
<rect width="37" height="39" fill="white" transform="translate(51.5746)"/>
</clipPath>
</defs>
</svg>
