<svg width="147" height="25" viewBox="0 0 147 25" fill="none" xmlns="http://www.w3.org/2000/svg">
<path d="M146.041 10.9399C144.871 10.9399 143.703 10.9384 142.533 10.9384C142.319 10.9384 142.313 10.9458 142.313 11.1549C142.313 12.206 142.313 13.2572 142.313 14.3068C142.313 16.2678 142.313 18.2288 142.313 20.1897C142.313 20.2604 142.313 20.3311 142.307 20.4003C142.303 20.4577 142.275 20.4856 142.219 20.4915C142.172 20.4974 142.125 20.4974 142.079 20.4974C141.057 20.4974 140.034 20.4974 139.012 20.4974C138.976 20.4974 138.941 20.4974 138.906 20.496C138.81 20.4886 138.785 20.465 138.778 20.3649C138.773 20.2943 138.775 20.2236 138.775 20.1544C138.775 17.2012 138.775 14.2494 138.775 11.2962C138.775 11.2432 138.775 11.1902 138.775 11.1372C138.772 10.9561 138.757 10.9429 138.568 10.9399C138.521 10.9384 138.474 10.9399 138.427 10.9399C137.381 10.9399 136.335 10.9399 135.289 10.9399C135.224 10.9399 135.159 10.9399 135.096 10.9326C135.028 10.9252 135.002 10.8972 134.996 10.831C134.991 10.778 134.991 10.725 134.991 10.672C134.991 9.90938 134.991 9.14531 134.991 8.38271C134.991 8.11624 134.991 8.11624 135.252 8.11624C136.927 8.11624 138.601 8.11624 140.276 8.11624C142.109 8.11624 143.943 8.11624 145.775 8.11624C145.864 8.11624 145.952 8.11919 146.039 8.12066C146.041 9.06139 146.041 10.0007 146.041 10.9399Z" fill="black"/>
<path d="M99.0507 14.2642C99.0257 14.3422 99.036 14.407 99.036 14.4688C99.0345 15.5317 99.036 16.5947 99.036 17.6576C99.036 18.5085 99.036 19.3609 99.036 20.2119C99.036 20.2766 99.0345 20.3414 99.0271 20.4047C99.0213 20.4621 98.9918 20.4872 98.9343 20.493C98.8872 20.4975 98.84 20.4975 98.7929 20.4975C97.8589 20.4975 96.9234 20.4975 95.9893 20.4975C95.9481 20.4975 95.9068 20.4975 95.8656 20.4945C95.7919 20.4872 95.7624 20.4607 95.7551 20.3841C95.7492 20.3134 95.7507 20.2428 95.7507 20.1736C95.7507 17.3322 95.7507 14.4894 95.7507 11.6481C95.7507 10.5675 95.7507 9.48689 95.7507 8.40629C95.7507 8.34152 95.7506 8.27674 95.758 8.21344C95.7639 8.15749 95.7934 8.12952 95.8494 8.12216C95.8965 8.11627 95.9436 8.11627 95.9908 8.11627C96.8143 8.11627 97.6364 8.11627 98.4599 8.11627C98.4835 8.11627 98.5071 8.11774 98.5307 8.11627C98.622 8.11038 98.6883 8.14719 98.734 8.22669C98.79 8.32385 98.8504 8.4166 98.9093 8.51229C99.5914 9.63116 100.272 10.7486 100.953 11.8674C101.576 12.8906 102.199 13.9138 102.824 14.9355C102.875 15.0209 102.934 15.1004 102.99 15.1828C102.993 15.1858 103 15.1858 103.008 15.1872C103.054 15.1666 103.07 15.1195 103.092 15.0798C103.747 13.9742 104.403 12.8671 105.059 11.76C105.389 11.2049 105.719 10.6499 106.049 10.0934C106.402 9.4972 106.756 8.90095 107.109 8.30619C107.22 8.12069 107.199 8.11627 107.442 8.11627C108.254 8.11627 109.064 8.11627 109.876 8.11627C109.929 8.11627 109.982 8.11774 110.035 8.12216C110.088 8.12658 110.124 8.15749 110.13 8.21049C110.137 8.2679 110.14 8.32679 110.14 8.38568C110.141 8.90831 110.141 9.43095 110.143 9.95358C110.147 13.0658 110.15 16.178 110.156 19.2903C110.156 19.6068 110.171 19.9233 110.174 20.2413C110.177 20.4975 110.172 20.4989 109.922 20.4989C109 20.4989 108.076 20.4989 107.154 20.4989C107.124 20.4989 107.095 20.4989 107.065 20.4989C106.927 20.493 106.908 20.4739 106.9 20.3311C106.897 20.2722 106.899 20.2133 106.899 20.1544C106.894 18.1935 106.89 16.2325 106.885 14.2715C106.885 14.2068 106.885 14.1435 106.885 14.064C106.824 14.0831 106.809 14.1302 106.787 14.167C106.522 14.6101 106.258 15.0547 105.993 15.4979C105.403 16.4857 104.813 17.4736 104.222 18.4629C104.083 18.6955 103.943 18.9252 103.809 19.1607C103.756 19.252 103.688 19.2947 103.582 19.2947C103.16 19.2917 102.737 19.2917 102.312 19.2947C102.199 19.2962 102.128 19.249 102.071 19.1533C101.831 18.7559 101.586 18.3613 101.345 17.9668C100.761 17.0157 100.176 16.0661 99.5929 15.1151C99.4485 14.8796 99.3056 14.644 99.1597 14.4085C99.1332 14.3628 99.1126 14.3128 99.0507 14.2642Z" fill="black"/>
<path d="M133.733 14.3186C133.733 16.2737 133.733 18.2288 133.733 20.1839C133.733 20.2545 133.733 20.3252 133.726 20.3944C133.72 20.4621 133.69 20.4886 133.626 20.4945C133.584 20.4989 133.543 20.4989 133.502 20.4989C132.674 20.4989 131.844 20.4989 131.016 20.4989C130.81 20.4989 130.812 20.4974 130.676 20.3326C130.174 19.726 129.671 19.1224 129.169 18.5159C128.757 18.0183 128.347 17.5192 127.934 17.0231C127.504 16.5034 127.071 15.9837 126.641 15.464C126.277 15.0253 125.915 14.5866 125.549 14.1493C125.518 14.1125 125.496 14.0389 125.434 14.0639C125.389 14.0816 125.409 14.1479 125.409 14.1935C125.408 14.3996 125.408 14.6042 125.408 14.8103C125.408 16.5888 125.408 18.3686 125.408 20.1471C125.408 20.2177 125.409 20.2884 125.403 20.3576C125.395 20.4665 125.368 20.4901 125.263 20.4974C125.228 20.5004 125.193 20.4989 125.157 20.4989C124.159 20.4989 123.16 20.4989 122.161 20.4989C122.12 20.4989 122.078 20.4989 122.037 20.496C121.962 20.4886 121.934 20.4636 121.927 20.3856C121.921 20.3149 121.922 20.2442 121.922 20.175C121.922 18.0668 121.922 15.9601 121.922 13.8519C121.922 12.05 121.922 10.2465 121.922 8.44456C121.922 8.368 121.925 8.29145 121.932 8.21636C121.937 8.16336 121.971 8.13098 122.024 8.12509C122.071 8.12067 122.118 8.1192 122.164 8.1192C122.992 8.1192 123.821 8.1192 124.649 8.1192C124.667 8.1192 124.684 8.12067 124.702 8.1192C124.799 8.11184 124.869 8.15453 124.929 8.22814C125.096 8.43425 125.265 8.63594 125.433 8.8391C125.875 9.37204 126.318 9.90498 126.76 10.4394C127.188 10.9547 127.615 11.4699 128.042 11.9852C128.413 12.4327 128.785 12.8788 129.156 13.3264C129.464 13.6974 129.77 14.0684 130.077 14.4393C130.113 14.485 130.152 14.5292 130.191 14.5733C130.202 14.5851 130.221 14.5954 130.236 14.5954C130.255 14.5939 130.261 14.5733 130.262 14.5557C130.264 14.4968 130.265 14.4379 130.265 14.379C130.265 12.6757 130.265 10.9738 130.265 9.27046C130.265 8.98927 130.265 8.70661 130.265 8.42542C130.265 8.39008 130.265 8.35475 130.265 8.31942C130.268 8.13539 130.281 8.1192 130.468 8.1192C131.145 8.11773 131.819 8.1192 132.496 8.1192C132.83 8.1192 133.166 8.11773 133.5 8.1192C133.714 8.12067 133.73 8.13539 133.732 8.35033C133.733 8.56822 133.732 8.78463 133.732 9.00252C133.733 10.7721 133.733 12.5446 133.733 14.3186Z" fill="black"/>
<path d="M112.307 20.496C111.754 20.496 111.202 20.496 110.649 20.496C110.596 20.496 110.543 20.4931 110.492 20.4857C110.468 20.4828 110.451 20.4577 110.458 20.4327C110.47 20.3944 110.486 20.3562 110.504 20.3194C110.664 20.0117 110.825 19.7054 110.987 19.3992C111.122 19.1445 111.261 18.8928 111.395 18.6381C111.659 18.1405 111.919 17.64 112.185 17.1423C112.526 16.499 112.87 15.8571 113.213 15.2152C113.34 14.9767 113.465 14.7383 113.592 14.4983C113.954 13.8137 114.315 13.1277 114.679 12.4431C114.959 11.9146 115.242 11.3861 115.523 10.8575C115.84 10.2613 116.156 9.66506 116.473 9.06882C116.615 8.80529 116.758 8.54177 116.899 8.27825C116.912 8.25175 116.927 8.22672 116.942 8.20169C116.967 8.15899 117.005 8.13249 117.055 8.12808C117.102 8.12366 117.149 8.12219 117.197 8.12219C118.296 8.12219 119.395 8.12366 120.494 8.12219C120.722 8.12219 120.725 8.15311 120.629 8.33272C120.367 8.82443 120.105 9.31761 119.842 9.80933C119.716 10.0478 119.589 10.2863 119.464 10.5263C119.193 11.0401 118.925 11.5554 118.652 12.0692C118.294 12.7434 117.935 13.4162 117.577 14.0905C117.46 14.3084 117.345 14.5263 117.23 14.7441C116.956 15.2638 116.684 15.7835 116.41 16.3032C116.089 16.9112 115.766 17.5178 115.445 18.1243C115.144 18.6896 114.845 19.255 114.545 19.8203C114.453 19.9911 114.362 20.1618 114.272 20.3326C114.263 20.3488 114.254 20.3635 114.247 20.3797C114.212 20.4563 114.154 20.4975 114.066 20.4931C114.019 20.4916 113.972 20.4931 113.924 20.4931C113.388 20.4945 112.848 20.4945 112.307 20.496C112.307 20.4945 112.307 20.4945 112.307 20.496Z" fill="url(#paint0_linear_2307_96)"/>
<path d="M122.207 4C123.218 4 124.228 4 125.239 4C125.292 4 125.345 4 125.398 4.00147C125.42 4.00147 125.45 4 125.459 4.02502C125.469 4.05447 125.441 4.0633 125.42 4.07361C125.174 4.18697 124.93 4.29885 124.684 4.41074C124.362 4.55649 124.041 4.70077 123.72 4.84504C123.425 4.97754 123.131 5.10856 122.836 5.24106C122.558 5.3662 122.279 5.49134 122.001 5.61794C121.674 5.76516 121.348 5.91238 121.021 6.0596C120.732 6.19063 120.444 6.32165 120.155 6.45268C119.71 6.6529 119.265 6.85165 118.822 7.05334C118.511 7.1932 118.201 7.336 117.892 7.47733C117.636 7.59364 117.378 7.70994 117.121 7.82624C117.105 7.8336 117.088 7.83802 117.071 7.84243C117.049 7.84832 117.024 7.81888 117.033 7.7968C117.049 7.75263 117.067 7.70994 117.088 7.66724C117.379 7.071 117.672 6.47624 117.964 5.88147C118.235 5.32792 118.506 4.77438 118.777 4.22083C118.883 4.00442 118.885 4.00442 119.124 4.00442C120.152 4 121.179 4 122.207 4Z" fill="#53CFD2"/>
<path fill-rule="evenodd" clip-rule="evenodd" d="M0.770125 8C0.837771 8 5.78114 8 5.87481 8C5.98235 8 6.11244 8 6.26507 8C6.41077 8 6.5981 8 6.80624 8C7.01439 8 7.25375 8 7.51913 8C7.78972 8 8.09673 8 8.44016 8C8.78359 8 9.16345 8 9.59014 8C10.0116 8 18.0043 8 18.5142 8H26.8295C27.7193 8 28.4374 8.33303 28.9942 8.98867C29.5458 9.64432 29.7279 10.404 29.5458 11.2626C29.5458 11.2626 29.4989 11.4968 29.3845 11.9755C29.2804 12.449 29.0931 13.292 28.8069 14.5096C28.656 15.1133 28.3281 15.618 27.8286 16.0135C27.329 16.4141 26.741 16.6067 26.0854 16.6067C26.0802 16.6067 26.075 16.6067 26.0542 16.6067C26.0438 16.6067 26.0125 16.6067 25.9813 16.6067C25.9432 16.6067 25.8946 16.6067 25.8356 16.6067C25.7784 16.6067 25.7003 16.6067 25.6067 16.6067C25.5095 16.6067 25.3933 16.6067 25.258 16.6067C25.1123 16.6067 24.9562 16.6067 24.7637 16.6067C24.5798 16.6067 24.3648 16.6067 24.1185 16.6067C23.8791 16.6067 23.6033 16.6067 23.2963 16.6067C22.9841 16.6067 22.6354 16.6067 22.2504 16.6067C21.8705 16.6067 21.4438 16.6067 20.9859 16.6067C20.5176 16.6067 20.0129 16.6067 19.4613 16.6067C19.4613 16.6067 19.4613 16.6015 19.4613 16.5963C19.4561 16.6067 19.4457 16.6275 19.4405 16.6587C19.4353 16.6847 19.4301 16.7159 19.4197 16.7576C19.4092 16.794 19.3988 16.8512 19.3884 16.9033C19.3728 16.9605 19.3572 17.0282 19.3364 17.1062C19.3208 17.1895 19.2948 17.2727 19.274 17.3716C19.2427 17.4705 19.2219 17.5797 19.1907 17.7046C19.1647 17.8243 19.1283 17.9596 19.097 18.1157C19.0606 18.2666 19.0242 18.4331 18.9826 18.6152C18.9461 18.7974 18.8941 18.9951 18.8473 19.2084C18.7952 19.4218 18.7432 19.6508 18.6859 19.9057C18.6235 20.1555 18.5611 20.4209 18.4934 20.7019C18.4934 20.7019 18.4934 20.7019 18.4882 20.7019C18.4882 20.7019 18.4778 20.7019 18.457 20.7019C18.4466 20.7019 18.4154 20.7019 18.3789 20.7019C18.3373 20.7019 18.2801 20.7019 18.2072 20.7019C18.1396 20.7019 18.0511 20.7019 17.9418 20.7019C17.8378 20.7019 17.7025 20.7019 17.5412 20.7019C17.3903 20.7019 17.2029 20.7019 16.9844 20.7019C16.7762 20.7019 16.5299 20.7019 16.2455 20.7019C15.9697 20.7019 15.6471 20.7019 15.2984 20.7019C15.2984 20.6967 15.2984 20.6915 15.3036 20.6706C15.3036 20.6533 15.3106 20.629 15.3245 20.5978C15.3297 20.5666 15.3401 20.5197 15.3609 20.4573C15.3817 20.3949 15.3973 20.3168 15.4181 20.2231C15.4389 20.1243 15.465 20.0098 15.5014 19.8641C15.5274 19.7288 15.569 19.5675 15.6211 19.375C15.6679 19.1824 15.7147 18.9691 15.7772 18.7245C15.8396 18.48 15.902 18.1938 15.9749 17.8815C16.0477 17.5745 16.1362 17.2259 16.2299 16.8356C16.3183 16.4506 16.4224 16.0239 16.5369 15.566C16.6514 15.0976 16.7658 14.5877 16.9011 14.0257L16.9948 13.6406H20.169L20.1586 13.6511H25.5182C25.7107 13.6511 25.8356 13.5626 25.8929 13.3805C25.8929 13.3805 26.0646 12.704 26.3976 11.3563C26.4236 11.2366 26.3924 11.1325 26.3144 11.0493C26.2415 10.9556 26.1426 10.914 26.023 10.914C26.0178 10.914 26.0073 10.914 25.9917 10.914C25.9813 10.914 25.9553 10.914 25.9241 10.914C25.8877 10.914 25.8408 10.914 25.7836 10.914C25.7281 10.914 25.6552 10.914 25.565 10.914C25.4714 10.914 25.3517 10.914 25.2164 10.914C25.0811 10.914 24.925 10.914 24.7481 10.914C24.5677 10.914 24.3578 10.914 24.1185 10.914H23.3952V10.8984H21.4438V10.914C21.4386 10.914 21.4282 10.914 21.4126 10.914C21.4022 10.914 21.3762 10.914 21.345 10.914C21.3085 10.914 21.2617 10.914 21.2045 10.914C21.1524 10.914 21.0692 10.914 20.9755 10.914C20.8871 10.914 20.7674 10.914 20.6425 10.914C20.5072 10.914 20.3459 10.914 20.1742 10.914C19.9868 10.914 19.7787 10.914 19.5393 10.914C19.3052 10.914 19.0346 10.914 18.7328 10.914H2.43526L2.46648 10.7891L2.64861 10.071L0.770125 8ZM19.4613 16.5963C19.4613 16.5807 19.4665 16.565 19.4665 16.565C19.4665 16.565 19.4613 16.5702 19.4613 16.5859C19.4613 16.5859 19.4613 16.5911 19.4613 16.5963ZM55.1717 16.5911H53.1788C53.1736 16.6119 53.1736 16.6275 53.1632 16.6483C53.1579 16.6743 53.1475 16.7107 53.1371 16.7472C53.1302 16.7888 53.118 16.8374 53.1007 16.8929C53.0903 16.9553 53.0695 17.0178 53.0591 17.0958C53.0383 17.1687 53.0226 17.2571 52.9966 17.356C52.9758 17.4549 52.955 17.5641 52.9238 17.6942C52.8926 17.8139 52.8613 17.9596 52.8301 18.1053C52.7937 18.251 52.7573 18.4175 52.7052 18.5944C52.6636 18.7818 52.6168 18.9795 52.5699 19.1876C52.5231 19.4062 52.4711 19.6351 52.4138 19.8849C52.3566 20.1399 52.2942 20.4053 52.2317 20.6863H49.0732L50.7383 13.6406H59.1524C59.345 13.6406 59.4751 13.5574 59.5375 13.3805C59.5375 13.3805 59.6936 12.704 60.0214 11.3511C60.037 11.2314 60.011 11.1377 59.9278 11.0441C59.8549 10.9504 59.7612 10.9036 59.652 10.9036H51.3939L51.5761 10.097L51.6177 9.98776L49.8225 8H60.4377C61.3119 8 62.0248 8.33303 62.5712 8.98867C63.1175 9.64953 63.3101 10.404 63.1331 11.2626C63.1331 11.2626 63.0759 11.4968 62.9718 11.9703C62.8678 12.4438 62.6752 13.2816 62.4047 14.4992C62.2538 15.1081 61.9311 15.618 61.4368 16.0031C60.9425 16.3985 60.3649 16.5911 59.7144 16.5911H58.5592L63.6067 25H60.2244L55.1717 16.5911ZM53.184 16.5546C53.184 16.5598 53.1788 16.565 53.1788 16.5859C53.1788 16.5859 53.184 16.5807 53.184 16.5755C53.184 16.5702 53.184 16.5598 53.184 16.5546ZM53.1736 16.5911H53.1788C53.1788 16.5911 53.1788 16.5893 53.1788 16.5859C53.1736 16.5911 53.1736 16.5911 53.1736 16.5911ZM64.1426 8H77.1723L76.4594 10.8932H72.3747L70.3036 20.7019H67.2856L69.3982 10.8932H65.1886L65.5268 9.52464L64.1426 8ZM10.0637 12.8705C10.917 12.8705 11.6039 13.2035 12.1139 13.8644C12.6238 14.5253 12.7747 15.2798 12.577 16.1436C12.577 16.1436 12.577 16.1436 12.577 16.1488C12.577 16.154 12.577 16.1592 12.5718 16.1748C12.5718 16.1852 12.5666 16.206 12.5614 16.2372C12.5562 16.258 12.5406 16.3049 12.5301 16.3569C12.5197 16.4141 12.5041 16.4818 12.4781 16.5598C12.4573 16.6483 12.4313 16.7472 12.4001 16.8669C12.374 16.9917 12.3376 17.1374 12.296 17.2987C12.2596 17.4653 12.2075 17.6526 12.1555 17.8711C12.1035 18.0845 12.0462 18.329 11.9838 18.5996C11.8173 19.2241 11.4894 19.7236 10.9951 20.1139C10.5025 20.5059 9.93011 20.7019 9.27793 20.7019C9.27273 20.7019 9.26752 20.7019 9.24671 20.7019C9.2311 20.7019 9.20508 20.7019 9.16866 20.7019C9.13223 20.7019 9.07499 20.7019 9.01255 20.7019C8.9397 20.7019 8.86165 20.7019 8.75758 20.7019C8.6535 20.7019 8.52342 20.7019 8.36731 20.7019C8.22161 20.7019 8.03428 20.7019 7.82614 20.7019C7.618 20.7019 7.38384 20.7019 7.11325 20.7019C6.84267 20.7019 6.53566 20.7019 6.19743 20.7019C5.86093 20.7019 5.48107 20.7019 5.05785 20.7019C4.63636 20.7019 4.17325 20.7019 3.6633 20.7019C3.14294 20.7019 2.58616 20.7019 1.97735 20.7019C1.37374 20.7019 0.71809 20.7019 0 20.7019C0 20.6967 2.92435e-07 20.6915 0.00520384 20.6706C0.00520384 20.655 0.0104068 20.629 0.0208139 20.5926C0.0260175 20.5614 0.0468322 20.5145 0.0572393 20.4521C0.0780535 20.3845 0.0936632 20.3012 0.119681 20.2075C0.145699 20.0983 0.176921 19.9786 0.208142 19.8329C0.239363 19.6872 0.275789 19.5155 0.322621 19.3125C0.374656 19.12 0.426691 18.8858 0.489133 18.6257C0.55678 18.3655 0.624426 18.0793 0.697275 17.7567C0.697275 17.7567 0.697276 17.7567 0.702479 17.7567C0.702479 17.7567 0.71809 17.7567 0.733701 17.7567C0.749312 17.7567 0.770125 17.7567 0.801347 17.7567C0.837771 17.7567 0.884604 17.7567 0.941843 17.7567C0.999082 17.7567 1.07193 17.7567 1.1708 17.7567C1.25926 17.7567 1.37374 17.7567 1.50903 17.7567C1.63912 17.7567 1.79002 17.7567 1.97735 17.7567C2.15427 17.7567 2.36241 17.7567 2.59657 17.7567C2.83593 17.7567 3.10652 17.7567 3.40833 17.7567C3.71013 17.7567 4.04316 17.7567 4.41781 17.7567C4.78727 17.7567 5.19835 17.7567 5.64585 17.7567C6.09856 17.7567 6.5929 17.7567 7.12886 17.7567C7.65442 17.7567 8.23722 17.7567 8.86165 17.7567C9.03857 17.7567 9.16345 17.6682 9.2363 17.4809C9.2363 17.4757 9.2363 17.4653 9.2363 17.4496C9.24151 17.4392 9.24151 17.4132 9.24671 17.3924C9.26232 17.356 9.27273 17.3092 9.28313 17.2467C9.30395 17.1947 9.31956 17.1114 9.34037 17.0282C9.36639 16.9345 9.38721 16.8304 9.41843 16.6951C9.45485 16.5598 9.48607 16.4089 9.5225 16.2268C9.57453 16.1175 9.55892 16.0135 9.49128 15.9198C9.42363 15.8313 9.34037 15.7793 9.22069 15.7793C9.21549 15.7793 9.21028 15.7793 9.19988 15.7793C9.17906 15.7793 9.16345 15.7793 9.13743 15.7793C9.10621 15.7793 9.06459 15.7793 9.00214 15.7793C8.95011 15.7793 8.87205 15.7793 8.7888 15.7793C8.69513 15.7793 8.59627 15.7793 8.47138 15.7793C8.3517 15.7793 8.19559 15.7793 8.02388 15.7793C7.85736 15.7793 7.66136 15.7793 7.43587 15.7793C7.21212 15.7793 6.95715 15.7793 6.67095 15.7793C6.38996 15.7793 6.07254 15.7793 5.7187 15.7793C5.37006 15.7793 4.9902 15.7793 4.56872 15.7793C3.71533 15.7793 3.03367 15.4619 2.51852 14.8167C2.07622 14.2495 1.8993 13.6042 1.98776 12.8705H10.0637Z" fill="black"/>
<path d="M78.7934 8H83.4622H83.4723H83.4927H83.5029H83.513H83.5232H83.5334H83.5537H83.5639H83.5741H83.5842H83.5944H83.6046H83.6249H83.6351H83.6453H83.6554H83.6656H83.7368C83.8182 8 83.9097 8 84.0216 8C84.1132 8 84.2454 8 84.398 8C84.5607 8 84.7336 8 84.9574 8C85.171 8 85.4151 8 85.6898 8C85.9678 8 86.2797 8 86.6256 8C86.9714 8 87.3681 8 87.8055 8C88.2327 8 88.7108 8 89.2295 8C89.7584 8 90.3348 8 90.9587 8C91.5893 8 92.2607 8 92.993 8V8.01019C92.993 8.01019 92.993 8.03057 92.993 8.04075C92.993 8.05094 92.9828 8.0815 92.9727 8.12225C92.9591 8.15621 92.9455 8.20376 92.932 8.26489C92.9184 8.32602 92.8947 8.41092 92.8608 8.51959C92.8404 8.61128 92.7998 8.73354 92.7591 8.87617C92.7286 9.02899 92.6879 9.20219 92.6268 9.39576C92.5861 9.59953 92.5251 9.83385 92.4641 10.0987C92.3929 10.3636 92.3115 10.6489 92.2301 10.9851H92.22C92.22 10.9851 92.2098 10.9851 92.1996 10.9851C92.1861 10.9851 92.1623 10.9851 92.1284 10.9851C92.0945 10.9851 92.0471 10.9851 91.986 10.9851C91.9352 10.9851 91.8538 10.9851 91.7521 10.9851C91.6605 10.9851 91.5385 10.9851 91.4062 10.9851C91.274 10.9851 91.1011 10.9851 90.9282 10.9851C90.7451 10.9851 90.5315 10.9851 90.2874 10.9851C90.05 10.9851 89.7754 10.9851 89.4635 10.9851H88.4971H88.487H88.4768H88.4463H88.4361H88.4259H88.4056H88.3954H88.3649H88.3547H88.3344H88.3141H88.2937H88.2835H88.2632H88.2429H88.2225H88.2022H88.1818H88.1615H88.1513H88.131H88.1106H88.0903H88.0801H88.0496H88.0293H88.0191H87.9987H87.9784H87.958H87.9377H87.9174H87.897H87.8868H87.8665H87.836H87.8258H87.8055H87.775H87.7648H87.7444H87.7139H87.7038H87.6834H87.6529H87.6427H87.6224H87.602H87.5817H87.5614H87.541H87.5105H87.5003H87.48H87.4495H87.4393H87.419H87.3986H87.3681H87.3579H87.3376H87.3071H87.2867H87.2765H87.246H87.2257H87.2053H87.1748H87.1647H87.1443H87.1138H87.0935H87.0731H87.0528H87.0324H87.0121H86.9816H86.9612H86.9511H86.9205H86.9002H86.8799H86.8493H86.829H86.8087H86.7781H86.768H86.7476H86.7171H86.6968H86.6764H86.6459H86.6256H86.6052H86.5747H86.5544H86.5238H86.5035H86.4832H86.4526H86.4323H86.4221H86.3916H86.3713H86.3509H86.3204H86.3001H86.2797H86.2492H86.2289H86.1882H86.1678H86.1475H86.117H86.0966H86.0763H86.0458H86.0254H85.9949H85.9746H85.9542H85.9237H85.9034H85.883H85.8525H85.822H85.7915H85.7711H85.7508H85.7203H85.6999H85.6796H85.6491H85.6186H85.5881H85.5677H85.5474H85.5169H85.4965H85.4558H85.4355H85.4151H85.3846H85.3643H85.3236H85.3032H85.2829H85.2524H85.232H85.1914H85.171H85.1507H85.1202H85.0896H85.0591H85.0388H85.0184H84.9778H84.9574H84.9269H84.8964H84.8659H84.8455H84.815H84.7845H84.7641H84.7235H84.7031H84.6828H84.6421H84.6217H84.5912H84.5607H84.5302H84.5099H84.4692H84.4488H84.4183H84.3878H84.3675H84.3268H84.3064H84.2657H84.2454H84.225H84.1844H84.164H84.1233H84.103H84.0623H84.042H84.0013H83.9809H83.9504H83.9199H83.8894H80.5022L80.5226 10.8527L80.7158 10.1191L78.7934 8ZM83.5741 12.9922H83.5842H83.5944H83.6046H83.6249H83.6351H83.6453H83.6554H83.6656H83.686H83.6961H83.7063H83.7165H83.7266H83.7368H83.7572H83.7673H83.7775H83.7877H83.7978H83.808H83.8284H83.8385H83.8487H83.8589H83.869H83.8894H83.8996H83.9097H83.9199H83.9301H83.9504H83.9606H83.9708H83.9809H83.9911H84.0013H84.0216H84.0318H84.042H84.0521H84.0623H84.0725H84.0928H84.103H84.1132H84.1233H84.1335H84.1539H84.164H84.1742H84.1844H84.1945H84.2047H84.225H84.2352H84.2454H84.2556H84.2657H84.2861H84.2963H84.3064H84.3166H84.3268H84.3369H84.3573H84.3675H84.3776H84.3878H84.398H84.4183H84.4285H84.4387H84.4488H84.459H84.4692H84.4895H84.4997H84.5099H84.52H84.5302H84.5505H84.5607H84.5709H84.5811H84.5912H84.6014H84.6217H84.6319H84.6421H84.6523H84.6624H84.6828H84.6929H84.7031H84.7133H84.7235H84.7336H84.754H84.7641H84.7743H84.7845H84.7947H84.815H84.8252H84.8353H84.8455H84.8557H84.8659H84.8862H84.8964H84.9066H84.9167H84.9269H84.9472H84.9574H84.9676H84.9778H84.9879H84.9981H85.0184H85.0286H85.0388H85.049H85.0591H85.0795H85.0896H85.0998H85.11H85.1202H85.1303H85.1507H85.1608H85.171H85.1812H85.1914H85.2117H85.2219H85.232H85.2422H85.2524H85.2626H85.2829H85.2931H85.3032H85.3134H85.3236H85.3439H85.3541H85.3643H85.3744H85.3846H85.3948H85.4151H85.4253H85.4355H85.4456H85.4558H85.466H85.4863H85.4965H85.5067H85.5169H85.527H85.5474H85.5575H85.5677H85.5779H85.5881H85.5982H85.6186H85.6287H85.6389H85.6491H85.6593H85.6796H85.6898H85.6999H85.7101H85.7203H85.7305H85.7508H85.761H85.7711H85.7813H85.7915H85.8118H85.822H85.8322H85.8423H85.8525H85.8627H85.883H85.8932H85.9034H85.9135H85.9237H85.9441H85.9542H85.9644H85.9746H85.9847H86.0153H86.0254H86.0356H86.0458H86.0559H86.0763H86.0865H86.0966H86.1068H86.117H86.1272H86.1577H86.1678H86.178H86.1882H86.2085H86.2187H86.2289H86.2492H86.2594H86.2797H86.2899H86.3001H86.3102H86.3408H86.3509H86.3611H86.3713H86.3814H86.3916H86.4221H86.4323H86.4425H86.4526H86.473H86.4933H86.5035H86.5137H86.5238H86.5544H86.5645H86.5747H86.5849H86.6154H86.6256H86.6357H86.6459H86.6764H86.6866H86.6968H86.7069H86.7374H86.7476H86.7578H86.7781H86.7883H86.8087H86.829H86.8392H86.8493H86.8799H86.89H86.9002H86.9205H86.9409H86.9511H86.9714H86.9816H86.9917H87.0223H87.0324H87.0426H87.0731H87.0833H87.1036H87.1138H87.124H87.1545H87.1647H87.1748H87.2053H87.2155H87.2359H87.246H87.2765H87.2867H87.2969H87.3172H87.3376H87.3579H87.3681H87.3884H87.4088H87.419H87.4393H87.4495H87.48H87.4902H87.5105H87.5207H87.5512H87.5614H87.5817H87.602H87.6224H87.6326H87.6529H87.6732H87.6936H87.7038H87.7343H87.7444H87.7648H87.7851H87.8055H87.8258H87.836H87.8665H87.8767H87.897H87.9174H87.9377H87.958H87.9682H87.9987H88.0089H88.0293H88.0496H88.0699H88.0903H88.1106H88.131H88.1513H88.1615H88.1818H88.2123H88.2225H88.2429H88.2734H88.2835C89.1583 12.9922 89.8534 13.3284 90.3687 14.0008C90.8875 14.6834 91.0604 15.4577 90.857 16.344C90.857 16.344 90.857 16.3542 90.857 16.3644C90.8366 16.3746 90.8366 16.395 90.8265 16.4255C90.8265 16.4561 90.8163 16.4969 90.8061 16.558C90.7959 16.6089 90.7858 16.6803 90.7553 16.7618C90.7349 16.8433 90.6942 16.9553 90.6739 17.0776C90.6535 17.21 90.6129 17.3527 90.562 17.5157C90.5281 17.6855 90.4806 17.879 90.4196 18.0964C90.3687 18.3205 90.3077 18.565 90.2365 18.8503C90.0738 19.482 89.7381 20.0016 89.2295 20.3989C88.7311 20.8064 88.1513 21 87.48 21C87.48 21 87.4698 21 87.4495 21C87.4291 21 87.4088 21 87.3681 21C87.3376 21 87.2765 21 87.2155 21C87.1443 21 87.0528 21 86.9511 21C86.8426 21 86.7103 21 86.5544 21C86.3916 21 86.2187 21 85.9949 21C85.7813 21 85.5474 21 85.2626 21C84.9981 21 84.6828 21 84.3369 21C83.9911 21 83.5944 21 83.1672 21C82.74 21 82.2619 21 81.7432 21C81.2142 21 80.6548 21 80.0242 21C79.4037 21 78.7324 21 78 21C78 21 78 20.9796 78.0102 20.9694C78.0102 20.9491 78.0102 20.9287 78.0203 20.8879C78.0305 20.8472 78.0509 20.8064 78.0712 20.7453C78.0814 20.674 78.1017 20.5823 78.1322 20.4906C78.1526 20.3785 78.1933 20.2461 78.2136 20.1034C78.2543 19.9608 78.2848 19.7774 78.3357 19.5737C78.3865 19.3699 78.4476 19.1458 78.4984 18.8809C78.5798 18.616 78.6306 18.3103 78.7222 17.9843C78.7324 17.9843 78.7324 17.9843 78.7527 17.9843C78.7663 17.9843 78.79 17.9843 78.8239 17.9843C78.8646 17.9843 78.8951 17.9843 78.9663 17.9843C79.0273 17.9843 79.1087 17.9843 79.2003 17.9843C79.2918 17.9843 79.4037 17.9843 79.5461 17.9843C79.6783 17.9843 79.8411 17.9843 80.0242 17.9843C80.2072 17.9843 80.4209 17.9843 80.665 17.9843C80.9091 17.9843 81.1837 17.9843 81.4787 17.9843C81.794 17.9843 82.1297 17.9843 82.5162 17.9843C82.9027 17.9843 83.3232 17.9843 83.7775 17.9843C84.2352 17.9843 84.7336 17.9843 85.2829 17.9843C85.8322 17.9843 86.4221 17.9843 87.0528 17.9843C87.2359 17.9843 87.3681 17.8926 87.4393 17.6991C87.4393 17.6991 87.4393 17.6889 87.4393 17.6787C87.4393 17.6583 87.4393 17.6379 87.4495 17.6074C87.4698 17.5768 87.48 17.5259 87.4902 17.4749C87.5003 17.4138 87.5207 17.3221 87.5512 17.2406C87.5715 17.1489 87.602 17.0368 87.6326 16.8942C87.6529 16.7617 87.6936 16.6089 87.7343 16.4255C87.775 16.3033 87.7648 16.1912 87.7038 16.1097C87.6326 16.018 87.541 15.9671 87.4291 15.9671C87.4291 15.9671 87.419 15.9671 87.4088 15.9671C87.3783 15.9671 87.3681 15.9671 87.3376 15.9671C87.3071 15.9671 87.2562 15.9671 87.2053 15.9671C87.1443 15.9671 87.0697 15.9671 86.9816 15.9671C86.8866 15.9671 86.7781 15.9671 86.6561 15.9671C86.5238 15.9671 86.3814 15.9671 86.2085 15.9671C86.0356 15.9671 85.8322 15.9671 85.5982 15.9671C85.3744 15.9671 85.11 15.9671 84.8252 15.9671C84.5336 15.9671 84.2081 15.9671 83.8487 15.9671C83.4927 15.9671 83.096 15.9671 82.6688 15.9671C81.794 15.9671 81.1024 15.6309 80.5836 14.9687C80.1259 14.3981 79.9428 13.7359 80.0242 12.9922H83.5741Z" fill="black"/>
<g clip-path="url(#clip0_2307_96)">
<path d="M46.1948 8.61752C47.5469 7.83578 49.2305 6.72137 50.6454 4.57693C52.0603 2.4325 50.977 0 50.977 0C50.9722 1.34524 50.2433 3.65844 48.1185 5.13268C46.2977 6.39937 45.1648 5.31503 46.0309 4.13175C46.897 2.94848 47.7879 2.75547 47.7879 2.75547C47.7879 2.75547 45.9118 2.64684 44.7085 3.91256C42.9486 5.76215 42.4617 8.06856 41.6747 8.33528C41.0383 8.55059 40.4466 7.93762 41.0392 7.06278C41.6319 6.18793 42.7828 5.42365 42.5075 4.28597C41.7452 6.06863 40.4113 5.74566 38.6124 7.59816C35.9169 10.3691 36.4619 15.7773 40.8639 15.7026C45.6413 15.6211 46.5455 12.0354 47.0771 10.3255C47.6088 8.61558 48.2138 8.56902 48.2138 8.56902C48.2138 8.56902 47.2839 8.56126 46.6522 9.83667C46.0205 11.1121 45.3182 11.0907 45.0982 10.7571C44.8781 10.4235 44.8466 9.39925 46.1948 8.61752Z" fill="#121314"/>
<path d="M45.8499 7.23251C44.0558 8.12094 43.3441 10.2848 43.2774 11.4312C43.1678 13.4272 41.1145 15.3971 39.6376 13.9878C38.6582 13.0519 39.4052 10.986 41.1621 10.2751C43.3145 9.40702 43.164 7.77081 45.8499 7.23251Z" fill="white"/>
<path d="M42.0653 19.8969C44.6524 17.2633 44.6524 12.9935 42.0653 10.3599C39.4781 7.72631 35.2835 7.72631 32.6963 10.3599C30.1092 12.9935 30.1092 17.2633 32.6963 19.8969C35.2835 22.5305 39.4781 22.5305 42.0653 19.8969Z" fill="black"/>
<path d="M48.9351 8.87166C48.7279 9.00401 48.5391 9.1642 48.3739 9.34788C48.2166 9.53066 48.0881 9.7371 47.9928 9.95988C47.7946 10.4012 47.7069 10.8881 47.6193 11.3788C47.5316 11.8696 47.4478 12.371 47.3287 12.8696C47.2718 13.1284 47.195 13.3824 47.099 13.629C46.9975 13.8814 46.8698 14.122 46.7179 14.3467C46.4124 14.7925 46.0263 15.175 45.5803 15.4737C45.213 15.7161 44.9167 16.0549 44.7227 16.4543C44.6746 16.5537 44.6326 16.656 44.597 16.7608C44.5617 16.8665 44.5379 16.9664 44.5017 17.1012C44.4347 17.3554 44.3542 17.6057 44.2606 17.8509C43.6943 19.3351 42.678 20.5968 41.3593 21.4531C40.4833 22.0192 39.5004 22.3923 38.4741 22.5483C37.4479 22.7043 36.4008 22.6399 35.4005 22.359C34.3982 22.0813 33.4658 21.5885 32.666 20.9139C31.6662 20.0685 30.9033 18.9693 30.4546 17.7276C30.0059 16.4859 29.8873 15.1455 30.1106 13.8421C30.3339 12.5387 30.8913 11.3185 31.7265 10.3047C32.5617 9.2909 33.645 8.51954 34.8669 8.06858C35.3533 7.89061 35.8566 7.76449 36.3686 7.69227C36.4905 7.67481 36.6115 7.65832 36.7144 7.63795C36.8016 7.6239 36.8857 7.5947 36.9631 7.55163C37.144 7.42867 37.3105 7.28517 37.4595 7.12391L37.7225 6.86204C37.8178 6.77087 37.9131 6.68163 38.0083 6.59531C38.2032 6.42059 38.4088 6.25862 38.6238 6.11037C39.056 5.82077 39.528 5.59817 40.0245 5.44987C40.2617 5.37228 40.4913 5.30438 40.7038 5.21321C40.8093 5.16996 40.9119 5.1194 41.0106 5.06191C41.0602 5.03184 41.1059 4.99984 41.1564 4.96492L41.3069 4.8592C41.5029 4.72131 41.682 4.56015 41.8405 4.37911C42.0061 4.19929 42.1098 3.9695 42.1359 3.72443C42.167 3.98531 42.1095 4.24919 41.9729 4.47221C41.8424 4.69803 41.6821 4.90459 41.4965 5.08616L41.3603 5.21903C41.3127 5.26365 41.265 5.30826 41.2107 5.34997C41.1069 5.43366 40.997 5.50921 40.882 5.57596C40.6596 5.70195 40.4299 5.81402 40.1941 5.91154C39.9692 6.00853 39.7577 6.11425 39.5538 6.22966C39.3519 6.34486 39.1583 6.4745 38.9745 6.61762C38.7878 6.76174 38.6094 6.91653 38.44 7.08123C38.3532 7.16367 38.2684 7.24708 38.1856 7.3334C38.1027 7.41973 38.0188 7.51575 37.9235 7.60401C37.8283 7.69227 37.7415 7.78538 37.6425 7.87655C37.5344 7.97772 37.4162 8.06711 37.2899 8.14327C37.1511 8.22178 37.0004 8.27619 36.844 8.30427C36.7049 8.3324 36.581 8.34791 36.4629 8.36537C35.997 8.43247 35.5392 8.54817 35.0966 8.71065C34.2107 9.03826 33.403 9.55327 32.7269 10.2218C32.0484 10.8873 31.5161 11.6918 31.1651 12.582C30.8142 13.4722 30.6525 14.428 30.6908 15.3864C30.7252 16.3443 30.9591 17.2838 31.3768 18.1429C31.7951 19.0013 32.3851 19.7612 33.109 20.3736C34.5468 21.6064 36.5172 22.1456 38.3761 21.8634C39.5443 21.6906 40.6465 21.2054 41.5702 20.4572C42.4939 19.7089 43.206 18.7246 43.6337 17.6046C43.7193 17.3825 43.7931 17.1558 43.8547 16.9257C43.8833 16.819 43.9176 16.6745 43.9634 16.5435C44.0077 16.4107 44.0608 16.2811 44.1225 16.1556C44.3692 15.6507 44.7418 15.2206 45.203 14.9083C45.3912 14.7758 45.5695 14.6292 45.7365 14.4699C45.9018 14.3125 46.0542 14.1416 46.192 13.9588C46.3313 13.7769 46.4535 13.582 46.5569 13.3768C46.6609 13.1647 46.7482 12.9445 46.818 12.7183C46.9733 12.2517 47.1038 11.7716 47.2429 11.2857C47.382 10.7998 47.5364 10.3042 47.8032 9.8561C47.9363 9.63356 48.1036 9.43415 48.2986 9.26543C48.4898 9.10193 48.7045 8.96914 48.9351 8.87166Z" fill="url(#paint1_linear_2307_96)"/>
<path d="M37.4863 21.5725C40.9581 21.5725 43.7725 18.7581 43.7725 15.2863C43.7725 14.5283 43.6384 13.8016 43.3925 13.1287C41.2772 13.1372 39.8122 13.6792 38.7872 14.4447C37.7501 15.2194 37.1115 16.2619 36.7225 17.3424C36.1312 18.9851 36.1375 20.6267 36.1781 21.4362C36.6001 21.5256 37.0377 21.5725 37.4863 21.5725Z" fill="url(#paint2_linear_2307_96)"/>
<path d="M34.9056 21.0201C34.9027 20.8172 34.9041 20.5887 34.9132 20.34C34.9474 19.4043 35.0911 18.1625 35.5396 16.9166C35.9893 15.6674 36.7527 14.3951 38.0349 13.4374C39.1971 12.5693 40.7434 11.9914 42.7758 11.888C42.6579 11.7049 42.5308 11.5283 42.395 11.3589C39.9804 11.298 38.2511 11.7842 37.0085 12.5262C35.6295 13.3497 34.7918 14.5229 34.2847 15.7509C33.5853 17.4444 33.5272 19.1821 33.5627 20.1981C33.9717 20.5252 34.4224 20.8023 34.9056 21.0201Z" fill="url(#paint3_linear_2307_96)"/>
<path d="M32.3254 18.8765C32.3928 17.8374 32.5965 16.545 33.1227 15.271C33.7109 13.8465 34.7069 12.4363 36.364 11.4467C37.5824 10.7192 39.1267 10.2378 41.0732 10.1231C40.0559 9.41509 38.8196 9 37.4863 9C34.0145 9 31.2 11.8145 31.2 15.2863C31.2 16.621 31.616 17.8586 32.3254 18.8765Z" fill="url(#paint4_linear_2307_96)"/>
</g>
<defs>
<linearGradient id="paint0_linear_2307_96" x1="118.269" y1="8.78355" x2="112.621" y2="20.3953" gradientUnits="userSpaceOnUse">
<stop stop-color="#54BFD4"/>
<stop offset="0.4395" stop-color="#5D57E3"/>
<stop offset="0.5114" stop-color="#6654DE"/>
<stop offset="0.6272" stop-color="#7D4CD1"/>
<stop offset="0.7724" stop-color="#A440BB"/>
<stop offset="0.9398" stop-color="#D92E9D"/>
<stop offset="0.958" stop-color="#DF2C99"/>
</linearGradient>
<linearGradient id="paint1_linear_2307_96" x1="30.0008" y1="14.5284" x2="48.9423" y2="14.3957" gradientUnits="userSpaceOnUse">
<stop stop-color="#05D6D9"/>
<stop offset="1" stop-color="#F907FC"/>
</linearGradient>
<linearGradient id="paint2_linear_2307_96" x1="31.2" y1="16.1843" x2="43.7773" y2="16.0964" gradientUnits="userSpaceOnUse">
<stop stop-color="#05D6D9"/>
<stop offset="1" stop-color="#F907FC"/>
</linearGradient>
<linearGradient id="paint3_linear_2307_96" x1="31.2" y1="16.1843" x2="43.7773" y2="16.0964" gradientUnits="userSpaceOnUse">
<stop stop-color="#05D6D9"/>
<stop offset="1" stop-color="#F907FC"/>
</linearGradient>
<linearGradient id="paint4_linear_2307_96" x1="31.2" y1="16.1843" x2="43.7773" y2="16.0964" gradientUnits="userSpaceOnUse">
<stop stop-color="#05D6D9"/>
<stop offset="1" stop-color="#F907FC"/>
</linearGradient>
<clipPath id="clip0_2307_96">
<rect width="21.3733" height="22.6306" fill="white" transform="translate(30)"/>
</clipPath>
</defs>
</svg>
